<svg xmlns="http://www.w3.org/2000/svg" width="200" height="179" viewBox="0 0 200 179">
    <path fill="#FFF" fill-rule="nonzero" d="M116.005 138.056c-34.905-.267-54.6-29.521-62.946-44.7C44.714 78.157 37.6 79.742 39.114 73.962c2.455-9.39 22.83 7.883 32.137 18.796 9.302 10.905 22.685 18.162 40.652 18.852-7.403-11.939-31.05-19.025-23.766-22.874 6.73-3.558 28.177.728 58.116 13.715 10.27 4.455 17.607 12.65 22.815 21.494C246.41 36.056 161.748-34.28 100 17.794 69.886-7.603 34.321-3.882 14.756 16.79c11.062 3.6 24.944 6.225 39.986 6.337 34.902.268 54.6 29.521 62.943 44.702 8.343 15.197 15.46 13.611 13.945 19.392-2.455 9.39-22.827-7.883-32.136-18.796C90.19 57.52 76.807 50.263 58.84 49.572c7.403 11.938 31.053 19.025 23.766 22.875-6.728 3.558-28.174-.727-58.116-13.716-9.808-4.255-16.941-11.92-22.1-20.305-10.22 34.733 10.502 88.289 97.61 140.574 20.183-12.115 36.8-24.3 50.297-36.301-9.977-2.703-21.732-4.55-34.293-4.643z"/>
</svg>
