<svg xmlns="http://www.w3.org/2000/svg" width="142" height="142" viewBox="0 0 142 142">
    <g fill="none" fill-rule="evenodd" transform="translate(1 1)">
        <circle cx="70" cy="70" r="70" fill="#FDD751" stroke="#979797"/>
        <g fill-rule="nonzero">
            <path fill="#FFF" d="M78.946 66.224l18.431 24.227c5.038 6.621 3.754 16.073-2.868 21.111a15.065 15.065 0 0 1-9.122 3.076H48.525c-8.32 0-15.065-6.745-15.065-15.066 0-3.295 1.08-6.499 3.075-9.121l18.432-24.227c5.037-6.621 14.49-7.905 21.111-2.868a15.065 15.065 0 0 1 2.868 2.868zM51.74 23.334c5.603 0 10.145 4.541 10.145 10.144v5.073c0 5.603-4.542 10.145-10.145 10.145S41.594 44.154 41.594 38.55v-5.073c0-5.603 4.542-10.145 10.145-10.145zM31.45 48.695c5.603 0 10.145 4.542 10.145 10.145v5.072c0 5.603-4.542 10.145-10.145 10.145s-10.145-4.542-10.145-10.145v-5.072c0-5.603 4.542-10.145 10.145-10.145zm50.725-25.363c5.603 0 10.145 4.542 10.145 10.145v5.073c0 5.603-4.542 10.145-10.145 10.145S72.029 44.154 72.029 38.55v-5.073c0-5.603 4.542-10.145 10.145-10.145zm20.29 25.363c5.603 0 10.145 4.542 10.145 10.145v5.072c0 5.603-4.542 10.145-10.145 10.145s-10.145-4.542-10.145-10.145v-5.072c0-5.603 4.542-10.145 10.145-10.145z"/>
            <path fill="#000" d="M81.99 67.239l18.43 24.226c5.039 6.622 3.754 16.074-2.867 21.112a15.065 15.065 0 0 1-9.122 3.075H51.569c-8.32 0-15.066-6.745-15.066-15.065 0-3.295 1.08-6.5 3.076-9.122L58.01 67.24c5.038-6.622 14.49-7.906 21.112-2.868a15.065 15.065 0 0 1 2.868 2.868zM54.783 24.348c5.602 0 10.145 4.542 10.145 10.145v5.072c0 5.603-4.543 10.145-10.145 10.145-5.603 0-10.145-4.542-10.145-10.145v-5.072c0-5.603 4.542-10.145 10.145-10.145zM34.493 49.71c5.603 0 10.145 4.542 10.145 10.145v5.073c0 5.602-4.542 10.144-10.145 10.144S24.348 70.53 24.348 64.928v-5.073c0-5.603 4.542-10.145 10.145-10.145zm50.724-25.362c5.603 0 10.145 4.542 10.145 10.145v5.072c0 5.603-4.542 10.145-10.145 10.145-5.602 0-10.145-4.542-10.145-10.145v-5.072c0-5.603 4.543-10.145 10.145-10.145zm20.29 25.362c5.603 0 10.145 4.542 10.145 10.145v5.073c0 5.602-4.542 10.144-10.145 10.144S95.362 70.53 95.362 64.928v-5.073c0-5.603 4.542-10.145 10.145-10.145z"/>
        </g>
    </g>
</svg>
