<svg xmlns="http://www.w3.org/2000/svg" width="141" height="142" viewBox="0 0 141 142">
    <g fill="none" fill-rule="evenodd" transform="translate(.5 1)">
        <circle cx="70" cy="70" r="70" fill="#FDD751" stroke="#979797"/>
        <path fill="#FFF" d="M99.033 85.347l-2.254 12.95c-2.816.569-5.774 1.423-8.45 2.846l.422-2.42-8.873-1.565-1.69 8.965 2.676.57c-5.493 3.842-12.957 3.842-18.45.142l4.084-23.338-18.027-3.273-3.099 17.93c-2.535-.284-5.352-.284-7.887.143L41.569 75.1l33.098-19.923 24.366 30.169zm-71.785 25.21c-1.585 1.716-3.963-.857-2.377-2.573 6.44-6.97 16.94-6.863 23.28 0 5.45 4.718 13.276 4.718 18.725 0 6.34-6.863 16.743-6.97 23.281 0 5.845 5.147 14.365 4.933 20.012-.643.694-.644 1.684-.536 2.378.214.594.75.495 1.823-.198 2.574-6.935 6.648-17.337 6.862-24.47.536-5.548-6.005-13.177-5.362-18.824 0-6.637 6.005-16.544 6.005-23.182 0-5.151-5.576-13.374-5.79-18.625-.107zm-.185-42.144L69.597 42.94l8.45-5.123 6.197 7.685 8.17 10.103 1.408-8.111 11.549 1.992-3.24 18.073 13.521 16.65-8.591 5.122-31.267-38.706L33.26 76.097l-6.197-7.684zm10.356-28.2h.072c.285-1.754 2.71-3.103 4.779-2.226-1.498-2.968 2.996-6.678 7.846-5.8 0-10.523 23.968-8.162 20.401 1.483.143-.067.357-.067.5-.067 4.707 0 7.703 3.575 5.777 6.61 12.27.135 12.126 4.452-.071 4.452H37.419c-11.341 0-11.341-4.452 0-4.452zm30.065 64.06l9.014 1.566 1.55-9.108-9.014-1.565-1.55 9.107zm3.521-19.922l8.873 1.565-1.549 9.108-9.014-1.708 1.69-8.965zm19.718 3.415l-9.014-1.565-1.549 9.107 9.014 1.566 1.55-9.108z"/>
        <path fill="#000" d="M100.047 87.376l-2.253 12.95c-2.817.569-5.775 1.423-8.45 2.846l.422-2.42-8.873-1.565-1.69 8.965 2.676.57c-5.493 3.842-12.958 3.842-18.45.142l4.084-23.338-18.028-3.273-3.098 17.93c-2.535-.284-5.352-.284-7.887.143l4.084-23.196 33.098-19.923 24.365 30.169zm-71.784 25.21c-1.585 1.716-3.963-.857-2.378-2.573 6.44-6.97 16.94-6.863 23.281 0 5.45 4.718 13.276 4.718 18.724 0 6.34-6.863 16.743-6.97 23.282 0 5.845 5.147 14.365 4.933 20.012-.643.693-.644 1.684-.536 2.377.214.595.75.496 1.823-.198 2.574-6.935 6.648-17.337 6.862-24.47.536-5.548-6.005-13.176-5.362-18.823 0-6.638 6.005-16.545 6.005-23.182 0-5.152-5.576-13.375-5.79-18.625-.107zm-.186-42.144l42.534-25.473 8.45-5.123 6.198 7.685 8.169 10.103 1.408-8.111 11.55 1.992-3.24 18.073 13.52 16.65-8.59 5.122-31.268-38.706-42.534 25.472-6.197-7.684zm10.357-28.2h.071c.285-1.754 2.71-3.103 4.78-2.226-1.499-2.968 2.995-6.678 7.846-5.8 0-10.523 23.967-8.162 20.4 1.483.143-.067.357-.067.5-.067 4.708 0 7.704 3.575 5.778 6.61 12.269.135 12.126 4.452-.072 4.452H38.434c-11.342 0-11.342-4.452 0-4.452zm30.065 64.06l9.014 1.566 1.549-9.108-9.014-1.565-1.55 9.107zm3.52-19.922l8.874 1.565-1.55 9.108-9.013-1.708 1.69-8.965zm19.719 3.415l-9.014-1.565-1.55 9.107 9.014 1.565 1.55-9.107z"/>
    </g>
</svg>
