<svg xmlns="http://www.w3.org/2000/svg" width="142" height="142" viewBox="0 0 142 142">
    <g fill="none" fill-rule="evenodd" transform="translate(1 1)">
        <circle cx="70" cy="70" r="70" fill="#FDD751" stroke="#979797"/>
        <path fill="#FFF" fill-rule="nonzero" d="M48.375 30.622c-12.013 0-24.027 8.41-24.027 22.826 0 4.395 1.526 8.785 4.092 13.215h6.608l5.293-8.485c.503-.785 1.483-1.24 2.403-1.089.92.151 1.726.898 1.952 1.802l2.365 9.987 4.956-23.164c.401-1.159 1.022-1.867 2.215-1.915 1.2-.066 2.367.91 2.515 2.103l3.304 25.491 2.816-10.211c.273-1.053 1.354-1.846 2.44-1.802 1.086.043 2.065.919 2.253 1.99l2.215 11.15 1.69-3.342a2.457 2.457 0 0 1 2.14-1.314H83.89c.831-1.434 2.353-2.403 4.13-2.403a4.806 4.806 0 0 1 0 9.611c-1.766 0-3.295-.984-4.13-2.402h-8.823l-4.13 8.26c-.443.887-1.493 1.445-2.477 1.313-.985-.131-1.832-.94-2.028-1.915l-1.614-8.071-3.304 11.863c-.299 1.052-1.387 1.805-2.478 1.727-1.09-.078-2.069-.98-2.215-2.065L53.82 60.431l-4.28 19.935c-.225 1.06-1.243 1.903-2.328 1.915-1.084.012-2.123-.82-2.365-1.877l-3.491-14.83-2.966 4.768a2.442 2.442 0 0 1-2.027 1.126h-4.768c8.978 12.217 24.761 24.8 38.406 38.444 20.423-20.423 45.652-38.444 45.652-56.464 0-14.417-10.812-22.826-22.826-22.826-8.41 0-16.82 8.41-22.826 13.215-6.007-4.806-13.215-13.215-21.625-13.215z"/>
        <path fill="#000" fill-rule="nonzero" d="M49.39 32.65c-12.014 0-24.028 8.41-24.028 22.827 0 4.395 1.526 8.785 4.092 13.215h6.608l5.294-8.485c.502-.785 1.483-1.24 2.402-1.089.92.151 1.727.898 1.953 1.802l2.365 9.987 4.955-23.164c.402-1.159 1.023-1.867 2.215-1.915 1.201-.066 2.367.91 2.516 2.103l3.304 25.491 2.815-10.211c.273-1.053 1.355-1.846 2.44-1.802 1.087.043 2.065.919 2.253 1.99l2.215 11.15 1.69-3.342a2.457 2.457 0 0 1 2.14-1.314h10.286c.832-1.434 2.353-2.403 4.13-2.403a4.806 4.806 0 0 1 0 9.611c-1.765 0-3.294-.984-4.13-2.402h-8.822l-4.13 8.26c-.444.887-1.493 1.445-2.478 1.313-.984-.131-1.831-.94-2.027-1.915l-1.614-8.071-3.304 11.863c-.3 1.052-1.387 1.805-2.478 1.727-1.09-.078-2.07-.98-2.215-2.065L54.834 62.46l-4.28 19.935c-.226 1.06-1.244 1.903-2.328 1.915-1.084.012-2.123-.82-2.365-1.877l-3.492-14.83-2.966 4.768a2.442 2.442 0 0 1-2.027 1.126h-4.768c8.978 12.217 24.762 24.8 38.406 38.444 20.424-20.423 45.653-38.444 45.653-56.464 0-14.417-10.813-22.826-22.826-22.826-8.41 0-16.82 8.41-22.827 13.215C65.008 41.06 57.8 32.65 49.39 32.65z"/>
    </g>
</svg>
