<svg xmlns="http://www.w3.org/2000/svg" width="141" height="142" viewBox="0 0 141 142">
    <g fill="none" fill-rule="evenodd" transform="translate(.5 1)">
        <circle cx="70" cy="70" r="70" fill="#FDD751" stroke="#979797"/>
        <g fill="#FFF" fill-rule="nonzero" transform="translate(24.348 28.406)">
            <path d="M27.547 53.436c.456-.154.93-.287 1.422-.401a13.752 13.752 0 0 1-5.085-8.135 13.03 13.03 0 0 0-.978-.036h-9.13C6.494 44.864.57 50.788.57 58.07v10.915l.421.122c5.09 1.608 10.155 2.578 15.078 2.889v-2.752a16.606 16.606 0 0 1 11.38-15.778l.097-.029z"/>
            <circle cx="37.237" cy="11.091" r="10.188"/>
            <path d="M16.728 41.105h.006a9.64 9.64 0 0 0 1.584.13l.605-.011c1.753-.1 3.473-.666 4.961-1.642a13.6 13.6 0 0 1 4.598-7.77 10.112 10.112 0 0 0-1.517-6.138 9.406 9.406 0 0 0-1.37-1.748 10.136 10.136 0 0 0-7.277-3.063c-5.62 0-10.192 4.572-10.192 10.192 0 4.969 3.698 9.29 8.602 10.05zM41.494 29.298a13.26 13.26 0 0 1 1.342-4.356c-.334-.026-.67-.039-1.007-.039h-9.142c-.715 0-1.432.059-2.138.174a13.488 13.488 0 0 1 1.318 4.644c2.983-1.304 6.485-1.468 9.627-.423zM27.103 41.235c-.032.323-.054.658-.054.993v.194c.01.78.115 1.554.312 2.296.887 3.507 3.583 6.297 7.036 7.29.324.097.654.183.982.236l.394.07c.447.071.92.098 1.508.106.108 0 .217 0 .325-.01a3.16 3.16 0 0 0 .453-.03 8.54 8.54 0 0 0 1.468-.227l.114-.027.243-.06.004.002c3.633-.976 6.475-3.938 7.284-7.623.165-.727.249-1.472.249-2.217v-.194a10.092 10.092 0 0 0-.572-3.187 10.175 10.175 0 0 0-2.4-3.805l-.078-.078a10.017 10.017 0 0 0-2.579-1.846 10.023 10.023 0 0 0-4.551-1.082c-2.069 0-4.06.62-5.76 1.794a10.1 10.1 0 0 0-4.378 7.402v.003zM68.604 31.055l-.001.283c1.295.585 2.69.881 4.155.881 5.62 0 10.192-4.567 10.192-10.18 0-5.62-4.572-10.192-10.192-10.192-4.83 0-8.96 3.363-9.959 8.05a13.633 13.633 0 0 1 5.805 11.158zM46.569 25.339a10.097 10.097 0 0 0-1.76 5.58 13.586 13.586 0 0 1 5.9 9.368 9.746 9.746 0 0 0 3.26.894 10.91 10.91 0 0 0 1.65.032c.308-.01.594-.043.868-.085a9.673 9.673 0 0 0 1.287-.281 10.138 10.138 0 0 0 6.39-5.361 9.943 9.943 0 0 0 .81-2.38l.06-.304.005.002c.097-.652.14-1.196.14-1.75 0-.273-.009-.557-.041-.82a10.093 10.093 0 0 0-3.482-6.885A10.118 10.118 0 0 0 55 20.863c-2.575 0-5.035.967-6.927 2.723a10.041 10.041 0 0 0-1.502 1.752h-.001zM51.732 60.538l-.002-.003c-2.52-2.858-6.128-4.497-9.901-4.497h-9.142c-7.275 0-13.193 5.923-13.193 13.205v10.92l.428.13c6.317 1.982 12.561 2.988 18.563 2.988 9.674 0 15.493-2.693 16.125-3l.47-.254V69.243a13.172 13.172 0 0 0-1.663-6.34 12.92 12.92 0 0 0-1.685-2.365zM77.346 35.849h-9.13c-.161 0-.322.003-.482.01a13.729 13.729 0 0 1-4.47 6c7.448 1.687 12.943 8.415 12.998 16.195v4.982c8.783-.38 13.805-2.925 13.856-2.951l.479-.251v-10.78c-.044-7.28-5.988-13.205-13.25-13.205z"/>
            <path d="M59.587 44.864h-8.993a13.68 13.68 0 0 1-4.597 7.775c-.155.134-.314.263-.477.39.742.169 1.466.39 2.166.662a16.368 16.368 0 0 1 4.84 2.846 15.53 15.53 0 0 1 2.368 2.453c.357.437.687.896.998 1.388a17.11 17.11 0 0 1 1.475 2.892 16.518 16.518 0 0 1 1.136 5.958v2.825c8.783-.38 13.805-2.925 13.856-2.952l.479-.25V58.069c-.043-7.28-5.988-13.205-13.25-13.205z"/>
        </g>
        <g fill="#000" fill-rule="nonzero" transform="translate(25.362 30.435)">
            <path d="M27.547 53.436c.456-.154.93-.287 1.422-.401a13.752 13.752 0 0 1-5.085-8.135 13.03 13.03 0 0 0-.978-.036h-9.13C6.494 44.864.57 50.788.57 58.07v10.915l.421.122c5.09 1.608 10.155 2.578 15.078 2.889v-2.752a16.606 16.606 0 0 1 11.38-15.778l.097-.029z"/>
            <circle cx="37.237" cy="11.091" r="10.188"/>
            <path d="M16.728 41.105h.006a9.64 9.64 0 0 0 1.584.13l.605-.011c1.753-.1 3.473-.666 4.961-1.642a13.6 13.6 0 0 1 4.598-7.77 10.112 10.112 0 0 0-1.517-6.138 9.406 9.406 0 0 0-1.37-1.748 10.136 10.136 0 0 0-7.277-3.063c-5.62 0-10.192 4.572-10.192 10.192 0 4.969 3.698 9.29 8.602 10.05zM41.494 29.298a13.26 13.26 0 0 1 1.342-4.356c-.334-.026-.67-.039-1.007-.039h-9.142c-.715 0-1.432.059-2.138.174a13.488 13.488 0 0 1 1.318 4.644c2.983-1.304 6.485-1.468 9.627-.423zM27.103 41.235c-.032.323-.054.658-.054.993v.194c.01.78.115 1.554.312 2.296.887 3.507 3.583 6.297 7.036 7.29.324.097.654.183.982.236l.394.07c.447.071.92.098 1.508.106.108 0 .217 0 .325-.01a3.16 3.16 0 0 0 .453-.03 8.54 8.54 0 0 0 1.468-.227l.114-.027.243-.06.004.002c3.633-.976 6.475-3.938 7.284-7.623.165-.727.249-1.472.249-2.217v-.194a10.092 10.092 0 0 0-.572-3.187 10.175 10.175 0 0 0-2.4-3.805l-.078-.078a10.017 10.017 0 0 0-2.579-1.846 10.023 10.023 0 0 0-4.551-1.082c-2.069 0-4.06.62-5.76 1.794a10.1 10.1 0 0 0-4.378 7.402v.003zM68.604 31.055l-.001.283c1.295.585 2.69.881 4.155.881 5.62 0 10.192-4.567 10.192-10.18 0-5.62-4.572-10.192-10.192-10.192-4.83 0-8.96 3.363-9.959 8.05a13.633 13.633 0 0 1 5.805 11.158zM46.569 25.339a10.097 10.097 0 0 0-1.76 5.58 13.586 13.586 0 0 1 5.9 9.368 9.746 9.746 0 0 0 3.26.894 10.91 10.91 0 0 0 1.65.032c.308-.01.594-.043.868-.085a9.673 9.673 0 0 0 1.287-.281 10.138 10.138 0 0 0 6.39-5.361 9.943 9.943 0 0 0 .81-2.38l.06-.304.005.002c.097-.652.14-1.196.14-1.75 0-.273-.009-.557-.041-.82a10.093 10.093 0 0 0-3.482-6.885A10.118 10.118 0 0 0 55 20.863c-2.575 0-5.035.967-6.927 2.723a10.041 10.041 0 0 0-1.502 1.752h-.001zM51.732 60.538l-.002-.003c-2.52-2.858-6.128-4.497-9.901-4.497h-9.142c-7.275 0-13.193 5.923-13.193 13.205v10.92l.428.13c6.317 1.982 12.561 2.988 18.563 2.988 9.674 0 15.493-2.693 16.125-3l.47-.254V69.243a13.172 13.172 0 0 0-1.663-6.34 12.92 12.92 0 0 0-1.685-2.365zM77.346 35.849h-9.13c-.161 0-.322.003-.482.01a13.729 13.729 0 0 1-4.47 6c7.448 1.687 12.943 8.415 12.998 16.195v4.982c8.783-.38 13.805-2.925 13.856-2.951l.479-.251v-10.78c-.044-7.28-5.988-13.205-13.25-13.205z"/>
            <path d="M59.587 44.864h-8.993a13.68 13.68 0 0 1-4.597 7.775c-.155.134-.314.263-.477.39.742.169 1.466.39 2.166.662a16.368 16.368 0 0 1 4.84 2.846 15.53 15.53 0 0 1 2.368 2.453c.357.437.687.896.998 1.388a17.11 17.11 0 0 1 1.475 2.892 16.518 16.518 0 0 1 1.136 5.958v2.825c8.783-.38 13.805-2.925 13.856-2.952l.479-.25V58.069c-.043-7.28-5.988-13.205-13.25-13.205z"/>
        </g>
    </g>
</svg>
