<svg xmlns="http://www.w3.org/2000/svg" width="142" height="142" viewBox="0 0 142 142">
    <g fill="none" fill-rule="evenodd" transform="translate(1 1)">
        <circle cx="70" cy="70" r="70" fill="#FDD751" stroke="#979797"/>
        <g fill="#FFF" fill-rule="nonzero">
            <path d="M83.416 54.99c7.05 7.05 10.164 17.37 5.852 21.683l-11.78 11.78c-.37.37-.977.014-.851-.497 1.055-4.279-.951-12.316-7.411-18.776-6.498-6.498-16.072-9.448-20.548-6.757a1.997 1.997 0 0 1-2.221-.413L31.231 46.774c-.631-.632-.184-1.712.71-1.712H42.7c.554 0 1.003-.449 1.003-1.003v-10.76c0-.894 1.08-1.341 1.712-.71l16.427 16.44c4.312-4.313 14.525-1.088 21.574 5.962z"/>
            <path d="M58.045 102.084a.195.195 0 0 1-.194.048.191.191 0 0 1-.133-.148c-1.038-5.366-6.013-11.487-13.509-12.478a.28.28 0 0 1-.162-.478l3.573-3.572a.509.509 0 0 1 .615-.087c2.227 1.276 4.65 3.112 7.209 5.747.004.005.008.007.012.01.003.004.005.008.01.01.77.771 2.05.818 2.871.022l12.455-12.454c.099-.1.126-.252.063-.378a19.714 19.714 0 0 0-1.826-3.053.361.361 0 0 0-.547-.045L57.244 86.465a.507.507 0 0 1-.703.013c-4.84-4.448-10.797-7.834-17.286-7.862-.448-.002-.663-.555-.346-.87L51.144 65.51a.167.167 0 0 0-.108-.284c-2.005-.113-4.092.069-6.111.718L27.768 83.102c-8.192 8.193 3.074 26.496 16.667 29.778 8.778 2.117 9.365-.766 28.5-19.9.645-1.577.776-3.618.54-5.801a.229.229 0 0 0-.39-.137l-15.04 15.042zm-22.596.858c-5.89-5.89-8.083-13.652-4.789-16.947 3.445-3.445 8.481-3.998 13.191-2.557l-7.874 7.874c-1.797 1.796.686 4.616 2.694 3.067 1.818-1.398 7.585-1.568 11.557 2.354 2.253 2.226 3.603 4.986 3.61 7.382.024 6.484-9.694 7.52-18.389-1.173zM112.36 37.134l-3.721 3.72a.504.504 0 0 0-.034.675c3.668 4.633 4.817 10.87.743 15.03-.013.013-.02.028-.033.04L95.537 70.378a.143.143 0 0 1-.245-.094c-.072-1.45-.3-2.875-.71-4.37a.508.508 0 0 1 .127-.494l11.677-11.676c0-.001 0-.002.002-.003 2.473-2.473 1.436-6.31-.627-9.181a.511.511 0 0 0-.773-.054L91.64 57.852a.505.505 0 0 1-.784-.087 34.54 34.54 0 0 0-1.776-2.506.505.505 0 0 1 .04-.67l18.524-18.524a.522.522 0 0 0-.02-.75c-9.656-8.775-18.54-7.742-22.941-3.344L73.02 43.633a.504.504 0 0 1-.493.127 20.532 20.532 0 0 0-4.286-.732.17.17 0 1 1-.11-.29l13.66-13.661c8.553-8.555 21.482-4.017 30.613 5.12.758.758.859 2.033-.045 2.937z"/>
        </g>
        <g fill="#000" fill-rule="nonzero">
            <path d="M84.416 56.99c7.05 7.05 10.164 17.37 5.852 21.683l-11.78 11.78c-.37.37-.977.014-.851-.497 1.055-4.279-.951-12.316-7.411-18.776-6.498-6.498-16.072-9.448-20.548-6.757a1.997 1.997 0 0 1-2.221-.413L32.231 48.774c-.631-.632-.184-1.712.71-1.712H43.7c.554 0 1.003-.449 1.003-1.003v-10.76c0-.894 1.08-1.341 1.712-.71l16.427 16.44c4.312-4.313 14.525-1.088 21.574 5.962z"/>
            <path d="M59.045 104.084a.195.195 0 0 1-.194.048.191.191 0 0 1-.133-.148c-1.038-5.366-6.013-11.487-13.509-12.478a.28.28 0 0 1-.162-.478l3.573-3.572a.509.509 0 0 1 .615-.087c2.227 1.276 4.65 3.112 7.209 5.747.004.005.008.007.012.01.003.004.005.008.01.01.77.771 2.05.818 2.871.022l12.455-12.454c.099-.1.126-.252.063-.378a19.714 19.714 0 0 0-1.826-3.053.361.361 0 0 0-.547-.045L58.244 88.465a.507.507 0 0 1-.703.013c-4.84-4.448-10.797-7.834-17.286-7.862-.448-.002-.663-.555-.346-.87L52.144 67.51a.167.167 0 0 0-.108-.284c-2.005-.113-4.092.069-6.111.718L28.768 85.102c-8.192 8.193 3.074 26.496 16.667 29.778 8.778 2.117 9.365-.766 28.5-19.9.645-1.577.776-3.618.54-5.801a.229.229 0 0 0-.39-.137l-15.04 15.042zm-22.596.858c-5.89-5.89-8.083-13.652-4.789-16.947 3.445-3.445 8.481-3.998 13.191-2.557l-7.874 7.874c-1.797 1.796.686 4.616 2.694 3.067 1.818-1.398 7.585-1.568 11.557 2.354 2.253 2.226 3.603 4.986 3.61 7.382.024 6.484-9.694 7.52-18.389-1.173zM113.36 39.134l-3.721 3.72a.504.504 0 0 0-.034.675c3.668 4.633 4.817 10.87.743 15.03-.013.013-.02.028-.033.04L96.537 72.378a.143.143 0 0 1-.245-.094c-.072-1.45-.3-2.875-.71-4.37a.508.508 0 0 1 .127-.494l11.677-11.676c0-.001 0-.002.002-.003 2.473-2.473 1.436-6.31-.627-9.181a.511.511 0 0 0-.773-.054L92.64 59.852a.505.505 0 0 1-.784-.087 34.54 34.54 0 0 0-1.776-2.506.505.505 0 0 1 .04-.67l18.524-18.524a.522.522 0 0 0-.02-.75c-9.656-8.775-18.54-7.742-22.941-3.344L74.02 45.633a.504.504 0 0 1-.493.127 20.532 20.532 0 0 0-4.286-.732.17.17 0 1 1-.11-.29l13.66-13.661c8.553-8.555 21.482-4.017 30.613 5.12.758.758.859 2.033-.045 2.937z"/>
        </g>
    </g>
</svg>
